<svg width="272" height="66" viewBox="0 0 272 66" fill="none" xmlns="http://www.w3.org/2000/svg">
<path d="M107.101 27.4129V23.1835C108.38 23.1835 109.581 22.9485 110.704 22.4786C111.827 21.9825 112.806 21.3037 113.641 20.4422C114.476 19.5806 115.129 18.5755 115.599 17.4268C116.069 16.278 116.304 15.0379 116.304 13.7064C116.304 12.375 116.069 11.1348 115.599 9.98612C115.129 8.83739 114.476 7.83225 113.641 6.9707C112.806 6.10916 111.827 5.44342 110.704 4.97348C109.581 4.47744 108.38 4.22942 107.101 4.22942V0C109.79 0 112.166 0.587419 114.228 1.76226C116.317 2.91099 117.949 4.5166 119.124 6.57909C120.325 8.64158 120.925 11.0174 120.925 13.7064C120.925 16.3694 120.325 18.7321 119.124 20.7946C117.949 22.8571 116.317 24.4758 114.228 25.6506C112.166 26.8255 109.79 27.4129 107.101 27.4129ZM101.423 27.4129V23.1835H107.101V27.4129H101.423ZM98.4856 27.4129V0H103.028V27.4129H98.4856ZM101.423 4.22942V0H107.101V4.22942H101.423Z" fill="white"/>
<path d="M133.077 27.8828C131.171 27.8828 129.474 27.452 127.986 26.5905C126.498 25.7028 125.336 24.4888 124.501 22.9485C123.665 21.4082 123.248 19.6328 123.248 17.6226C123.248 15.6123 123.678 13.837 124.54 12.2966C125.402 10.7563 126.576 9.55535 128.065 8.6938C129.553 7.80614 131.276 7.36232 133.234 7.36232C134.957 7.36232 136.523 7.8192 137.933 8.73296C139.343 9.62062 140.453 10.9129 141.262 12.6099C142.097 14.3069 142.515 16.3302 142.515 18.6799H138.09C138.116 16.9829 137.92 15.5862 137.502 14.4897C137.111 13.3932 136.536 12.5838 135.779 12.0617C135.022 11.5134 134.121 11.2393 133.077 11.2393C131.981 11.2393 131.041 11.4873 130.258 11.9833C129.5 12.4794 128.913 13.2104 128.495 14.1764C128.078 15.1162 127.869 16.3041 127.869 17.74C127.869 19.0193 128.117 20.1158 128.613 21.0296C129.109 21.9434 129.775 22.6483 130.61 23.1443C131.472 23.6142 132.425 23.8492 133.469 23.8492C134.618 23.8492 135.57 23.5881 136.328 23.066C137.085 22.5177 137.672 21.8259 138.09 20.9904L142.123 22.7135C141.575 23.7578 140.883 24.6716 140.048 25.4548C139.212 26.238 138.207 26.8385 137.032 27.2562C135.858 27.674 134.539 27.8828 133.077 27.8828ZM126.106 18.6799L126.146 15.1946H140.244V18.6799H126.106Z" fill="white"/>
<path d="M150.894 27.4129L158.531 7.83225H163.073L155.006 27.4129H150.894ZM150.581 27.4129L142.475 7.83225H146.978L154.654 27.4129H150.581Z" fill="white"/>
<path d="M173.464 27.8828C171.558 27.8828 169.861 27.452 168.373 26.5905C166.885 25.7028 165.723 24.4888 164.887 22.9485C164.052 21.4082 163.634 19.6328 163.634 17.6226C163.634 15.6123 164.065 13.837 164.927 12.2966C165.788 10.7563 166.963 9.55535 168.451 8.6938C169.939 7.80614 171.662 7.36232 173.62 7.36232C175.344 7.36232 176.91 7.8192 178.32 8.73296C179.73 9.62062 180.839 10.9129 181.648 12.6099C182.484 14.3069 182.902 16.3302 182.902 18.6799H178.476C178.503 16.9829 178.307 15.5862 177.889 14.4897C177.497 13.3932 176.923 12.5838 176.166 12.0617C175.409 11.5134 174.508 11.2393 173.464 11.2393C172.367 11.2393 171.427 11.4873 170.644 11.9833C169.887 12.4794 169.3 13.2104 168.882 14.1764C168.464 15.1162 168.255 16.3041 168.255 17.74C168.255 19.0193 168.503 20.1158 168.999 21.0296C169.495 21.9434 170.161 22.6483 170.997 23.1443C171.858 23.6142 172.811 23.8492 173.855 23.8492C175.004 23.8492 175.957 23.5881 176.714 23.066C177.471 22.5177 178.059 21.8259 178.476 20.9904L182.51 22.7135C181.962 23.7578 181.27 24.6716 180.434 25.4548C179.599 26.238 178.594 26.8385 177.419 27.2562C176.244 27.674 174.926 27.8828 173.464 27.8828ZM166.493 18.6799L166.532 15.1946H180.63V18.6799H166.493Z" fill="white"/>
<path d="M185.703 27.4129L185.742 0H190.128L190.089 27.4129H185.703Z" fill="white"/>
<path d="M203.494 27.8828C201.51 27.8828 199.747 27.452 198.207 26.5905C196.693 25.7028 195.505 24.4888 194.643 22.9485C193.782 21.4082 193.351 19.6328 193.351 17.6226C193.351 15.6123 193.769 13.837 194.604 12.2966C195.466 10.7563 196.654 9.55535 198.168 8.6938C199.708 7.80614 201.457 7.36232 203.415 7.36232C205.4 7.36232 207.149 7.80614 208.663 8.6938C210.177 9.55535 211.365 10.7563 212.227 12.2966C213.088 13.837 213.519 15.6123 213.519 17.6226C213.519 19.6328 213.088 21.4082 212.227 22.9485C211.365 24.4888 210.177 25.7028 208.663 26.5905C207.175 27.452 205.452 27.8828 203.494 27.8828ZM203.494 23.6534C204.538 23.6534 205.452 23.4054 206.235 22.9093C207.044 22.3872 207.671 21.6692 208.115 20.7555C208.585 19.8417 208.82 18.7974 208.82 17.6226C208.82 16.4477 208.585 15.4034 208.115 14.4897C207.671 13.5759 207.031 12.871 206.196 12.375C205.386 11.8528 204.46 11.5917 203.415 11.5917C202.371 11.5917 201.444 11.8528 200.635 12.375C199.826 12.871 199.186 13.5759 198.716 14.4897C198.272 15.4034 198.05 16.4477 198.05 17.6226C198.05 18.7974 198.272 19.8417 198.716 20.7555C199.186 21.6692 199.826 22.3872 200.635 22.9093C201.47 23.4054 202.423 23.6534 203.494 23.6534Z" fill="white"/>
<path d="M216.915 35.2451V7.83225H221.027L221.301 11.4351V35.2451H216.915ZM227.489 27.8828C225.844 27.8828 224.421 27.4651 223.22 26.6297C222.045 25.7681 221.145 24.5672 220.518 23.0268C219.892 21.4865 219.578 19.6851 219.578 17.6226C219.578 15.534 219.892 13.7325 220.518 12.2183C221.145 10.678 222.045 9.49008 223.22 8.65464C224.421 7.79309 225.844 7.36232 227.489 7.36232C229.264 7.36232 230.805 7.79309 232.11 8.65464C233.441 9.49008 234.473 10.678 235.204 12.2183C235.961 13.7325 236.339 15.534 236.339 17.6226C236.339 19.6851 235.961 21.4865 235.204 23.0268C234.473 24.5672 233.441 25.7681 232.11 26.6297C230.805 27.4651 229.264 27.8828 227.489 27.8828ZM226.392 23.8884C227.437 23.8884 228.363 23.6273 229.173 23.1051C229.982 22.5569 230.622 21.8128 231.092 20.8729C231.588 19.9331 231.836 18.8496 231.836 17.6226C231.836 16.3955 231.601 15.3121 231.131 14.3722C230.687 13.4323 230.06 12.7013 229.251 12.1791C228.442 11.657 227.502 11.3959 226.432 11.3959C225.439 11.3959 224.552 11.657 223.769 12.1791C222.985 12.7013 222.372 13.4323 221.928 14.3722C221.51 15.3121 221.301 16.3955 221.301 17.6226C221.301 18.8496 221.51 19.9331 221.928 20.8729C222.372 21.8128 222.972 22.5569 223.729 23.1051C224.513 23.6273 225.4 23.8884 226.392 23.8884Z" fill="white"/>
<path d="M248.271 27.8828C246.365 27.8828 244.668 27.452 243.18 26.5905C241.692 25.7028 240.53 24.4888 239.695 22.9485C238.859 21.4082 238.441 19.6328 238.441 17.6226C238.441 15.6123 238.872 13.837 239.734 12.2966C240.595 10.7563 241.77 9.55535 243.258 8.6938C244.746 7.80614 246.47 7.36232 248.428 7.36232C250.151 7.36232 251.717 7.8192 253.127 8.73296C254.537 9.62062 255.646 10.9129 256.456 12.6099C257.291 14.3069 257.709 16.3302 257.709 18.6799H253.284C253.31 16.9829 253.114 15.5862 252.696 14.4897C252.305 13.3932 251.73 12.5838 250.973 12.0617C250.216 11.5134 249.315 11.2393 248.271 11.2393C247.174 11.2393 246.235 11.4873 245.451 11.9833C244.694 12.4794 244.107 13.2104 243.689 14.1764C243.271 15.1162 243.062 16.3041 243.062 17.74C243.062 19.0193 243.311 20.1158 243.807 21.0296C244.303 21.9434 244.968 22.6483 245.804 23.1443C246.665 23.6142 247.618 23.8492 248.663 23.8492C249.811 23.8492 250.764 23.5881 251.521 23.066C252.278 22.5177 252.866 21.8259 253.284 20.9904L257.317 22.7135C256.769 23.7578 256.077 24.6716 255.242 25.4548C254.406 26.238 253.401 26.8385 252.226 27.2562C251.051 27.674 249.733 27.8828 248.271 27.8828ZM241.3 18.6799L241.339 15.1946H255.437V18.6799H241.3Z" fill="white"/>
<path d="M263.408 16.996C263.408 14.8813 263.812 13.1451 264.622 11.7875C265.431 10.4299 266.475 9.42481 267.755 8.77212C269.06 8.09333 270.418 7.75393 271.827 7.75393V11.9442C270.626 11.9442 269.491 12.1139 268.42 12.4533C267.376 12.7666 266.528 13.2887 265.875 14.0197C265.222 14.7507 264.896 15.7167 264.896 16.9177L263.408 16.996ZM260.51 27.4129V7.83225H264.896V27.4129H260.51Z" fill="white"/>
<path d="M117.479 64.7941L106.788 37.3812H111.33L122.296 64.7941H117.479ZM95.5876 64.7941L106.514 37.3812H111.096L100.404 64.7941H95.5876ZM100.718 58.0583V54.0247H117.126V58.0583H100.718Z" fill="white"/>
<path d="M128.452 59.3115L125.79 56.2961L135.971 45.2134H141.258L128.452 59.3115ZM124.262 64.7941V37.3812H128.648V64.7941H124.262ZM136.716 64.7941L129.823 54.6513L132.682 51.5967L141.924 64.7941H136.716Z" fill="white"/>
<path d="M155.007 64.7941L154.811 54.7296C154.811 53.3981 154.667 52.2886 154.38 51.4009C154.093 50.5133 153.649 49.8345 153.049 49.3645C152.448 48.8946 151.639 48.6596 150.621 48.6596C149.707 48.6596 148.897 48.8554 148.193 49.2471C147.488 49.6387 146.9 50.2391 146.43 51.0485L142.514 49.6778C142.958 48.8163 143.532 48.0069 144.237 47.2498C144.942 46.4927 145.83 45.8922 146.9 45.4484C147.971 44.9785 149.25 44.7435 150.738 44.7435C152.618 44.7435 154.184 45.096 155.437 45.8009C156.717 46.5058 157.67 47.5501 158.296 48.9338C158.923 50.3175 159.236 52.0275 159.236 54.0639V64.7941H155.007ZM149.446 65.264C147.122 65.264 145.308 64.7419 144.002 63.6976C142.723 62.6533 142.083 61.1782 142.083 59.2723C142.083 57.2359 142.762 55.6826 144.12 54.6121C145.503 53.5417 147.422 53.0065 149.876 53.0065H156.025L156.064 56.3744H151.247C149.498 56.3744 148.271 56.6224 147.566 57.1185C146.887 57.5884 146.548 58.2672 146.548 59.1549C146.548 59.912 146.848 60.5124 147.448 60.9563C148.075 61.374 148.937 61.5828 150.033 61.5828C150.999 61.5828 151.835 61.3609 152.539 60.9171C153.27 60.4472 153.832 59.8467 154.223 59.1157C154.615 58.3586 154.811 57.5492 154.811 56.6877H156.456C156.456 59.3507 155.881 61.4523 154.732 62.9927C153.61 64.5069 151.848 65.264 149.446 65.264Z" fill="white"/>
<path d="M177.065 64.7941L176.869 61.1521V37.3812H181.216V64.7941H177.065ZM170.682 65.264C168.906 65.264 167.353 64.8463 166.022 64.0108C164.716 63.1493 163.685 61.9484 162.928 60.408C162.197 58.8677 161.831 57.0662 161.831 55.0038C161.831 52.9152 162.197 51.1137 162.928 49.5995C163.685 48.0592 164.716 46.8713 166.022 46.0358C167.353 45.1743 168.906 44.7435 170.682 44.7435C172.327 44.7435 173.736 45.1743 174.911 46.0358C176.112 46.8713 177.026 48.0592 177.652 49.5995C178.279 51.1137 178.592 52.9152 178.592 55.0038C178.592 57.0662 178.279 58.8677 177.652 60.408C177.026 61.9484 176.112 63.1493 174.911 64.0108C173.736 64.8463 172.327 65.264 170.682 65.264ZM171.778 61.2696C172.77 61.2696 173.645 61.0085 174.402 60.4863C175.185 59.9381 175.786 59.194 176.204 58.2541C176.647 57.3143 176.869 56.2308 176.869 55.0038C176.869 53.7767 176.647 52.6932 176.204 51.7534C175.786 50.8135 175.185 50.0825 174.402 49.5603C173.645 49.0382 172.757 48.7771 171.739 48.7771C170.695 48.7771 169.768 49.0382 168.959 49.5603C168.149 50.0825 167.51 50.8135 167.04 51.7534C166.596 52.6932 166.361 53.7767 166.335 55.0038C166.361 56.2308 166.596 57.3143 167.04 58.2541C167.51 59.194 168.149 59.9381 168.959 60.4863C169.794 61.0085 170.734 61.2696 171.778 61.2696Z" fill="white"/>
<path d="M194.25 65.264C192.344 65.264 190.647 64.8332 189.159 63.9717C187.671 63.084 186.509 61.87 185.674 60.3297C184.838 58.7893 184.42 57.014 184.42 55.0038C184.42 52.9935 184.851 51.2182 185.713 49.6778C186.574 48.1375 187.749 46.9365 189.237 46.075C190.725 45.1873 192.448 44.7435 194.406 44.7435C196.13 44.7435 197.696 45.2004 199.106 46.1142C200.516 47.0018 201.625 48.2941 202.435 49.9911C203.27 51.6881 203.688 53.7114 203.688 56.0611H199.262C199.289 54.3641 199.093 52.9674 198.675 51.8709C198.283 50.7743 197.709 49.965 196.952 49.4429C196.195 48.8946 195.294 48.6205 194.25 48.6205C193.153 48.6205 192.213 48.8685 191.43 49.3645C190.673 49.8606 190.086 50.5916 189.668 51.5576C189.25 52.4974 189.041 53.6853 189.041 55.1212C189.041 56.4005 189.289 57.497 189.785 58.4108C190.281 59.3246 190.947 60.0295 191.783 60.5255C192.644 60.9954 193.597 61.2304 194.641 61.2304C195.79 61.2304 196.743 60.9693 197.5 60.4472C198.257 59.8989 198.845 59.2071 199.262 58.3716L203.296 60.0947C202.748 61.139 202.056 62.0528 201.221 62.836C200.385 63.6192 199.38 64.2197 198.205 64.6374C197.03 65.0551 195.712 65.264 194.25 65.264ZM187.279 56.0611L187.318 52.5758H201.416V56.0611H187.279Z" fill="white"/>
<path d="M206.489 64.7941V45.2134H210.601L210.875 48.8163V64.7941H206.489ZM219.764 64.7941V54.7688L224.15 53.594V64.7941H219.764ZM233.079 64.7941V54.7688L237.426 53.594V64.7941H233.079ZM219.764 54.7688C219.764 53.2023 219.582 52.0014 219.216 51.166C218.877 50.3044 218.381 49.7039 217.728 49.3645C217.101 49.0251 216.357 48.8554 215.496 48.8554C214.034 48.8293 212.898 49.3123 212.089 50.3044C211.279 51.2965 210.875 52.7194 210.875 54.573H209.23C209.23 52.5105 209.53 50.7482 210.131 49.2862C210.731 47.7981 211.593 46.6755 212.715 45.9184C213.838 45.1351 215.169 44.7435 216.71 44.7435C219.085 44.7435 220.913 45.4745 222.192 46.9365C223.498 48.3725 224.15 50.5916 224.15 53.594L219.764 54.7688ZM233.079 54.7688C233.079 53.2023 232.896 52.0014 232.531 51.166C232.165 50.3044 231.656 49.7039 231.004 49.3645C230.377 49.0251 229.646 48.8554 228.811 48.8554C227.322 48.8293 226.174 49.3123 225.364 50.3044C224.555 51.2965 224.15 52.7194 224.15 54.573H222.506C222.506 52.5105 222.806 50.7482 223.406 49.2862C224.007 47.7981 224.868 46.6755 225.991 45.9184C227.114 45.1351 228.445 44.7435 229.985 44.7435C232.361 44.7435 234.202 45.4745 235.507 46.9365C236.812 48.3725 237.452 50.5916 237.426 53.594L233.079 54.7688Z" fill="white"/>
<path d="M241.393 64.7941L241.432 45.2134H245.779L245.74 64.7941H241.393ZM243.586 41.4931C242.881 41.4931 242.268 41.2451 241.745 40.7491C241.249 40.2269 241.001 39.6134 241.001 38.9085C241.001 38.2036 241.249 37.6031 241.745 37.1071C242.268 36.611 242.881 36.363 243.586 36.363C244.291 36.363 244.891 36.611 245.387 37.1071C245.91 37.6031 246.171 38.2036 246.171 38.9085C246.171 39.6134 245.91 40.2269 245.387 40.7491C244.891 41.2451 244.291 41.4931 243.586 41.4931Z" fill="white"/>
<path d="M259.094 65.264C257.188 65.264 255.491 64.8332 254.003 63.9717C252.515 63.084 251.353 61.87 250.518 60.3297C249.682 58.7893 249.264 57.014 249.264 55.0038C249.264 52.9935 249.695 51.2182 250.557 49.6778C251.418 48.1375 252.593 46.9365 254.081 46.075C255.569 45.1873 257.292 44.7435 259.25 44.7435C260.974 44.7435 262.54 45.2004 263.95 46.1142C265.36 47.0018 266.469 48.2941 267.279 49.9911C268.114 51.6881 268.532 53.7114 268.532 56.0611H264.106C264.133 54.3641 263.937 52.9674 263.519 51.8709C263.127 50.7743 262.553 49.965 261.796 49.4429C261.039 48.8946 260.138 48.6205 259.094 48.6205C257.997 48.6205 257.057 48.8685 256.274 49.3645C255.517 49.8606 254.93 50.5916 254.512 51.5576C254.094 52.4974 253.885 53.6853 253.885 55.1212C253.885 56.4005 254.133 57.497 254.629 58.4108C255.125 59.3246 255.791 60.0295 256.627 60.5255C257.488 60.9954 258.441 61.2304 259.485 61.2304C260.634 61.2304 261.587 60.9693 262.344 60.4472C263.101 59.8989 263.689 59.2071 264.106 58.3716L268.14 60.0947C267.592 61.139 266.9 62.0528 266.065 62.836C265.229 63.6192 264.224 64.2197 263.049 64.6374C261.874 65.0551 260.556 65.264 259.094 65.264ZM252.123 56.0611L252.162 52.5758H266.26V56.0611H252.123Z" fill="white"/>
<path d="M40.6406 41.7065C40.6575 41.8187 40.727 41.9161 40.8275 41.9687C40.928 42.0213 41.0476 42.0229 41.1495 41.9729L55.9915 34.6869C56.0857 34.6407 56.1547 34.5553 56.1801 34.4535C56.3675 33.702 56.4281 32.9567 56.4281 32.153C56.4281 31.2644 56.305 30.454 56.1858 29.7374C56.1669 29.6236 56.094 29.526 55.9903 29.4756L41.1482 22.2611C41.0472 22.212 40.929 22.2134 40.8292 22.2649C40.7294 22.3165 40.6598 22.4121 40.6414 22.5229L40.6392 22.536C40.5828 22.8756 40.5211 23.2468 40.518 23.6234C40.4585 24.0033 40.4585 24.444 40.4585 24.8486V24.867C40.4585 25.0182 40.473 25.1839 40.4866 25.3383L40.4895 25.3713C40.5044 25.5418 40.5179 25.706 40.5179 25.8671C40.5179 25.8866 40.5195 25.9061 40.5227 25.9254C40.5485 26.081 40.5623 26.2381 40.5767 26.4034L40.5786 26.4249C40.5931 26.5909 40.6094 26.7727 40.644 26.9395C40.6673 27.0516 40.7431 27.1456 40.8476 27.1922L51.8285 32.0881L40.8427 37.1874C40.7406 37.2347 40.6669 37.3276 40.644 37.4378C40.5843 37.7252 40.5211 38.0981 40.518 38.4809C40.4585 38.8574 40.4585 39.2311 40.4585 39.6369V39.6532C40.4585 40.2487 40.5203 40.9107 40.6406 41.7065Z" fill="#FD5B4F"/>
<path fill-rule="evenodd" clip-rule="evenodd" d="M35.7154 14.637C35.8159 14.6897 35.8853 14.787 35.9023 14.8992C36.0225 15.695 36.0844 16.357 36.0844 16.9525V16.969C36.0844 17.3747 36.0844 17.7484 36.0249 18.1248C36.0218 18.5076 35.9585 18.8806 35.8988 19.1679C35.8759 19.2781 35.8023 19.371 35.7002 19.4184L24.7144 24.5177L35.6952 29.4135C35.7998 29.4601 35.8755 29.5541 35.8988 29.6662C35.9335 29.833 35.9498 30.0148 35.9643 30.1808L35.9662 30.2022C35.9806 30.3676 35.9943 30.5247 36.0202 30.6803C36.0234 30.6996 36.025 30.7191 36.025 30.7387C36.025 30.8997 36.0384 31.0639 36.0533 31.2344L36.0562 31.2673C36.0698 31.4217 36.0844 31.5875 36.0844 31.7387V31.7573C36.0844 32.1618 36.0844 32.6025 36.0249 32.9823C36.0218 33.3589 35.9601 33.73 35.9037 34.0696L35.9015 34.0829C35.883 34.1936 35.8134 34.2892 35.7137 34.3408C35.6139 34.3923 35.4956 34.3938 35.3946 34.3447L20.5526 27.1301C20.4488 27.0797 20.3759 26.9821 20.357 26.8683C20.2379 26.1517 20.1147 25.3413 20.1147 24.4528C20.1147 23.649 20.1754 22.9037 20.3628 22.1523C20.3882 22.0505 20.4571 21.965 20.5513 21.9188L35.3934 14.6329C35.4952 14.5829 35.6148 14.5844 35.7154 14.637Z" fill="#FD5B4F"/>
<path fill-rule="evenodd" clip-rule="evenodd" d="M68.5322 1.60204H8.01026C3.58632 1.60204 0 5.18835 0 9.61229V46.9935C0 51.4174 3.58631 55.0037 8.01025 55.0037H68.5322C72.9561 55.0037 76.5424 51.4174 76.5424 46.9935V9.61229C76.5424 5.18835 72.9561 1.60204 68.5322 1.60204ZM4.45014 9.61229C4.45014 7.64609 6.04406 6.05218 8.01026 6.05218H68.5322C70.4984 6.05218 72.0923 7.64609 72.0923 9.61229V46.9935C72.0923 48.9597 70.4984 50.5536 68.5322 50.5536H8.01025C6.04406 50.5536 4.45014 48.9597 4.45014 46.9935V9.61229Z" fill="#FD5B4F"/>
<path d="M8.45527 59.4539C7.2264 59.4539 6.2302 60.4501 6.2302 61.679C6.2302 62.9078 7.2264 63.904 8.45527 63.904H68.0872C69.316 63.904 70.3122 62.9078 70.3122 61.679C70.3122 60.4501 69.316 59.4539 68.0872 59.4539H8.45527Z" fill="#FD5B4F"/>
</svg>
