<svg width="32" height="32" viewBox="0 0 32 32" fill="none" xmlns="http://www.w3.org/2000/svg">
<mask id="mask0_2285_4025" style="mask-type:alpha" maskUnits="userSpaceOnUse" x="0" y="0" width="32" height="32">
<rect width="32" height="32" fill="#D9D9D9"/>
</mask>
<g mask="url(#mask0_2285_4025)">
<path d="M16 29.3334C14.1778 29.3334 12.4556 28.9834 10.8333 28.2834C9.21111 27.5834 7.79444 26.6278 6.58333 25.4167C5.37222 24.2056 4.41667 22.7889 3.71667 21.1667C3.01667 19.5445 2.66667 17.8222 2.66667 16C2.66667 14.1556 3.02778 12.4222 3.75 10.8C4.47222 9.1778 5.45 7.76669 6.68333 6.56669C7.91667 5.36669 9.35556 4.41669 11 3.71669C12.6444 3.01669 14.4 2.66669 16.2667 2.66669C18.0444 2.66669 19.7222 2.97224 21.3 3.58335C22.8778 4.19446 24.2611 5.03891 25.45 6.11669C26.6389 7.19446 27.5833 8.47224 28.2833 9.95002C28.9833 11.4278 29.3333 13.0222 29.3333 14.7334C29.3333 17.2889 28.5556 19.25 27 20.6167C25.4444 21.9834 23.5556 22.6667 21.3333 22.6667H18.8667C18.6667 22.6667 18.5278 22.7222 18.45 22.8334C18.3722 22.9445 18.3333 23.0667 18.3333 23.2C18.3333 23.4667 18.5 23.85 18.8333 24.35C19.1667 24.85 19.3333 25.4222 19.3333 26.0667C19.3333 27.1778 19.0278 28 18.4167 28.5334C17.8056 29.0667 17 29.3334 16 29.3334ZM8.66667 17.3334C9.24444 17.3334 9.72222 17.1445 10.1 16.7667C10.4778 16.3889 10.6667 15.9111 10.6667 15.3334C10.6667 14.7556 10.4778 14.2778 10.1 13.9C9.72222 13.5222 9.24444 13.3334 8.66667 13.3334C8.08889 13.3334 7.61111 13.5222 7.23333 13.9C6.85556 14.2778 6.66667 14.7556 6.66667 15.3334C6.66667 15.9111 6.85556 16.3889 7.23333 16.7667C7.61111 17.1445 8.08889 17.3334 8.66667 17.3334ZM12.6667 12C13.2444 12 13.7222 11.8111 14.1 11.4334C14.4778 11.0556 14.6667 10.5778 14.6667 10C14.6667 9.42224 14.4778 8.94446 14.1 8.56669C13.7222 8.18891 13.2444 8.00002 12.6667 8.00002C12.0889 8.00002 11.6111 8.18891 11.2333 8.56669C10.8556 8.94446 10.6667 9.42224 10.6667 10C10.6667 10.5778 10.8556 11.0556 11.2333 11.4334C11.6111 11.8111 12.0889 12 12.6667 12ZM19.3333 12C19.9111 12 20.3889 11.8111 20.7667 11.4334C21.1444 11.0556 21.3333 10.5778 21.3333 10C21.3333 9.42224 21.1444 8.94446 20.7667 8.56669C20.3889 8.18891 19.9111 8.00002 19.3333 8.00002C18.7556 8.00002 18.2778 8.18891 17.9 8.56669C17.5222 8.94446 17.3333 9.42224 17.3333 10C17.3333 10.5778 17.5222 11.0556 17.9 11.4334C18.2778 11.8111 18.7556 12 19.3333 12ZM23.3333 17.3334C23.9111 17.3334 24.3889 17.1445 24.7667 16.7667C25.1444 16.3889 25.3333 15.9111 25.3333 15.3334C25.3333 14.7556 25.1444 14.2778 24.7667 13.9C24.3889 13.5222 23.9111 13.3334 23.3333 13.3334C22.7556 13.3334 22.2778 13.5222 21.9 13.9C21.5222 14.2778 21.3333 14.7556 21.3333 15.3334C21.3333 15.9111 21.5222 16.3889 21.9 16.7667C22.2778 17.1445 22.7556 17.3334 23.3333 17.3334ZM16 26.6667C16.2 26.6667 16.3611 26.6111 16.4833 26.5C16.6056 26.3889 16.6667 26.2445 16.6667 26.0667C16.6667 25.7556 16.5 25.3889 16.1667 24.9667C15.8333 24.5445 15.6667 23.9111 15.6667 23.0667C15.6667 22.1334 15.9889 21.3889 16.6333 20.8334C17.2778 20.2778 18.0667 20 19 20H21.3333C22.8 20 24.0556 19.5722 25.1 18.7167C26.1444 17.8611 26.6667 16.5334 26.6667 14.7334C26.6667 12.0445 25.6389 9.80558 23.5833 8.01669C21.5278 6.2278 19.0889 5.33335 16.2667 5.33335C13.2444 5.33335 10.6667 6.36669 8.53333 8.43335C6.4 10.5 5.33333 13.0222 5.33333 16C5.33333 18.9556 6.37222 21.4722 8.45 23.55C10.5278 25.6278 13.0444 26.6667 16 26.6667Z" fill="#DA1EBA"/>
</g>
</svg>
